<svg xmlns="http://www.w3.org/2000/svg" xmlns:xlink="http://www.w3.org/1999/xlink" width="1279.997" height="1279.997" fill-rule="evenodd" clip-rule="evenodd" image-rendering="optimizeQuality" shape-rendering="geometricPrecision" text-rendering="geometricPrecision" viewBox="0 0 13333.33 13333.33" id="instagram-logo"><defs><linearGradient id="a" x1="12129.37" x2="929.55" y1="2786.06" y2="10742.22" gradientUnits="userSpaceOnUse"><stop offset="0" stop-color="#4845a2"></stop><stop offset=".278" stop-color="#a844a1"></stop><stop offset=".302" stop-color="#a844a1"></stop><stop offset=".38" stop-color="#a844a1"></stop><stop offset=".6" stop-color="#d7233e"></stop><stop offset=".6" stop-color="#d7233e"></stop><stop offset=".871" stop-color="#f8a325"></stop><stop offset="1" stop-color="#f8dd25"></stop></linearGradient><linearGradient id="c" x1="8921.33" x2="8320.3" y1="4435.32" y2="5761.99" gradientUnits="userSpaceOnUse" xlink:href="#a"></linearGradient><linearGradient id="b" x1="8550.5" x2="5133.94" y1="4451.73" y2="8471.21" gradientUnits="userSpaceOnUse" xlink:href="#a"></linearGradient></defs><path fill="url(#a)" d="M8507.79 3309.65l-3682.26 0c-822.87,0 -1496.35,673.46 -1496.35,1496.35l0 3721.33c0,822.88 673.47,1496.35 1496.35,1496.35l3682.26 0c822.88,0 1496.35,-673.47 1496.35,-1496.35l0 -3721.33c0,-822.89 -673.47,-1496.35 -1496.35,-1496.35zm878.04 4872.9l0 0c0,668.87 -549.35,1218.22 -1218.22,1218.22l-2999.59 0c-671.17,0 -1218.22,-549.35 -1218.22,-1218.22l0 -3029.47c0,-671.17 547.05,-1218.22 1218.22,-1218.22l2999.59 0c668.88,0 1218.22,547.05 1218.22,1218.22l0 3029.47z"></path><path fill="url(#b)" fill-rule="nonzero" d="M6666.67 5010.56c-912.52,0 -1654.95,744.73 -1654.95,1657.25 0,912.52 742.43,1654.95 1654.95,1654.95 912.52,0 1657.24,-742.43 1657.24,-1654.95 0,-912.52 -744.72,-1657.25 -1657.24,-1657.25zm0 2753.65l0 0c-604.52,0 -1096.41,-491.88 -1096.41,-1096.4 0,-604.52 491.89,-1096.4 1096.41,-1096.4 604.52,0 1096.4,491.89 1096.4,1096.4 0,604.52 -491.88,1096.4 -1096.4,1096.4z"></path><path fill="url(#c)" d="M8660.39 5347.79c188.48,0 340.18,-151.7 340.18,-337.89 0,-188.48 -151.7,-340.19 -340.18,-340.19 -186.18,0 -337.89,151.7 -337.89,340.19 0,186.18 151.7,337.89 337.89,337.89z"></path><rect width="13333.33" height="13333.33" fill="none"></rect></svg>